<?xml version="1.0" encoding="UTF-8" standalone="no"?>
<!-- Created with Inkscape (http://www.inkscape.org/) -->
<svg xmlns:dc="http://purl.org/dc/elements/1.1/" xmlns:cc="http://creativecommons.org/ns#"
  xmlns:rdf="http://www.w3.org/1999/02/22-rdf-syntax-ns#" xmlns:svg="http://www.w3.org/2000/svg"
  xmlns="http://www.w3.org/2000/svg" xmlns:sodipodi="http://sodipodi.sourceforge.net/DTD/sodipodi-0.dtd"
  xmlns:inkscape="http://www.inkscape.org/namespaces/inkscape" width="465" height="470" id="svg3785" version="1.1"
  inkscape:version="0.48.2 r9819" sodipodi:docname="Question Mark 1.svg">
  <title id="title2985">Question Mark 1</title>
  <defs id="defs3787" />
  <sodipodi:namedview id="base" pagecolor="#ffffff" bordercolor="#666666" borderopacity="1.0" inkscape:pageopacity="0.0"
    inkscape:pageshadow="2" inkscape:zoom="1.4" inkscape:cx="436.36379" inkscape:cy="214.5368"
    inkscape:document-units="px" inkscape:current-layer="layer1" showgrid="false" inkscape:window-width="1920"
    inkscape:window-height="1018" inkscape:window-x="-8" inkscape:window-y="-8" inkscape:window-maximized="1" />
  <metadata id="metadata3790">
    <rdf:RDF>
      <cc:Work rdf:about="">
        <dc:format>image/svg+xml</dc:format>
        <dc:type rdf:resource="http://purl.org/dc/dcmitype/StillImage" />
        <dc:title>Question Mark 1</dc:title>
        <cc:license rdf:resource="http://creativecommons.org/licenses/by-sa/3.0/" />
        <dc:date>7/9/12</dc:date>
        <dc:creator>
          <cc:Agent>
            <dc:title>Dr Ron Jones</dc:title>
          </cc:Agent>
        </dc:creator>
        <dc:rights>
          <cc:Agent>
            <dc:title>CC-BY-SA</dc:title>
          </cc:Agent>
        </dc:rights>
      </cc:Work>
      <cc:License rdf:about="http://creativecommons.org/licenses/by-sa/3.0/">
        <cc:permits rdf:resource="http://creativecommons.org/ns#Reproduction" />
        <cc:permits rdf:resource="http://creativecommons.org/ns#Distribution" />
        <cc:requires rdf:resource="http://creativecommons.org/ns#Notice" />
        <cc:requires rdf:resource="http://creativecommons.org/ns#Attribution" />
        <cc:permits rdf:resource="http://creativecommons.org/ns#DerivativeWorks" />
        <cc:requires rdf:resource="http://creativecommons.org/ns#ShareAlike" />
      </cc:License>
    </rdf:RDF>
  </metadata>
  <g inkscape:label="Layer 1" inkscape:groupmode="layer" id="layer1" transform="translate(0,-582.36218)">
    <g id="g3768" transform="matrix(0.67622216,0,0,0.52850159,3.1180429,584.08984)">
      <path inkscape:connector-curvature="0" id="path11472"
        style="font-size:1201.92492676px;font-style:normal;font-weight:normal;text-align:center;text-anchor:middle;fill:#FFA500;fill-opacity:1;stroke:none;font-family:Bitstream Vera Sans"
        d="m 425.60139,662.60253 -171.01341,0 0,-22.30134 c -2.4e-4,-37.95109 4.30352,-68.76211 12.9113,-92.43319 8.60728,-23.67032 23.63352,-45.28695 40.65324,-64.84996 17.01914,-19.56211 41.98734,-26.33264 101.45793,-75.63085 31.69095,-25.82203 55.2813,-77.1523 55.28175,-98.67174 2.21232,-56.92245 -13.93983,-79.3422 -34.56287,-99.96524 -22.67355,-19.67717 -60.67027,-30.06998 -90.99892,-30.06998 -27.77921,6.9e-4 -68.46735,8.08871 -87.7666,25.37047 -25.93817,17.28308 -65.23747,73.70611 -57.04687,130.54577 L 0,336.29869 C 0,179.0847 29.393699,137.60404 99.004113,73.268365 166.4015,18.891722 225.53539,0 342.85168,0 432.56959,0 504.74896,17.80281 557.1772,53.405855 628.38434,101.53058 679.47825,164.5894 679.47825,283.51867 c -6.9e-4,44.32081 -19.15253,90.78638 -43.0726,128.33299 -18.38947,30.90938 -60.37511,66.45236 -118.21237,104.41628 -42.83607,25.7686 -66.67196,53.11926 -77.03964,72.0946 -10.36863,18.97603 -15.55271,43.72267 -15.55225,74.23999 l 0,0 z" />
      <path inkscape:connector-curvature="0" id="path11474" style="fill:#FFA500;fill-opacity:1;stroke:none"
        d="m 434.58188,808.65122 a 94.042557,73.021278 0 1 1 -188.08511,0 94.042557,73.021278 0 1 1 188.08511,0 z" />
    </g>
  </g>
</svg>